HIERARCHY
ROOT root
{
	OFFSET	0	13.1	24.9
	CHANNELS 6  Xposition Yposition Zposition Xrotation Yrotation Zrotation
	JOINT spine_1
	{
		OFFSET	0	9.99999	0
		CHANNELS 3  Xrotation Yrotation Zrotation
		JOINT spine_2
		{
			OFFSET	0	112	-10
			CHANNELS 3  Xrotation Yrotation Zrotation
			JOINT spine_3
			{
				OFFSET	0	206.5	19.3
				CHANNELS 3  Xrotation Yrotation Zrotation
				JOINT spine_4
				{
					OFFSET	0	110.4	14.6
					CHANNELS 3  Xrotation Yrotation Zrotation
					JOINT neck_1
					{
						OFFSET	0	71.8	-50.3
						CHANNELS 3  Xrotation Yrotation Zrotation
						JOINT neck_2
						{
							OFFSET	0	86.2	-25.8
							CHANNELS 3  Xrotation Yrotation Zrotation
							JOINT head_ee
							{
								OFFSET	0	179.8	-8.7
								CHANNELS 3  Xrotation Yrotation Zrotation
								End Site
								{
									OFFSET	1	0	0
								}
							}
						}
					}
					JOINT left_clavicle
					{
						OFFSET	-43.2	22.4	-70.8
						CHANNELS 3  Xrotation Yrotation Zrotation
						JOINT left_shoulder
						{
							OFFSET	-93.9	-5.79999	48.7
							CHANNELS 3  Xrotation Yrotation Zrotation
							JOINT left_elbow
							{
								OFFSET	-291.4	-30.8	15.2
								CHANNELS 3  Xrotation Yrotation Zrotation
								JOINT left_lowarm_twist
								{
									OFFSET	-110.7	-3.89999	13.6
									CHANNELS 3  Xrotation Yrotation Zrotation
									JOINT left_hand
									{
										OFFSET	-110.7	-3.89999	13.6
										CHANNELS 3  Xrotation Yrotation Zrotation
										JOINT left_ee
										{
											OFFSET	-80.8	-5.10001	12.1
											CHANNELS 3  Xrotation Yrotation Zrotation
											End Site
											{
												OFFSET	1	0	0
											}
										}
									}
								}
							}
						}
					}
					JOINT right_clavicle
					{
						OFFSET	43.2	22.4	-70.8
						CHANNELS 3  Xrotation Yrotation Zrotation
						JOINT right_shoulder
						{
							OFFSET	93.9	-5.79999	48.7
							CHANNELS 3  Xrotation Yrotation Zrotation
							JOINT right_elbow
							{
								OFFSET	291.4	-30.8	15.2
								CHANNELS 3  Xrotation Yrotation Zrotation
								JOINT right_lowarm_twist
								{
									OFFSET	110.7	-3.89999	13.6
									CHANNELS 3  Xrotation Yrotation Zrotation
									JOINT right_hand
									{
										OFFSET	110.7	-3.89999	13.6
										CHANNELS 3  Xrotation Yrotation Zrotation
										JOINT right_ee
										{
											OFFSET	80.8	-5.10001	12.1
											CHANNELS 3  Xrotation Yrotation Zrotation
											End Site
											{
												OFFSET	1	0	0
											}
										}
									}
								}
							}
						}
					}
				}
			}
		}
	}
	JOINT left_hip
	{
		OFFSET	-82.8	-127.5	0.300001
		CHANNELS 3  Xrotation Yrotation Zrotation
		JOINT left_knee
		{
			OFFSET	-28.2	-396.7	2.2
			CHANNELS 3  Xrotation Yrotation Zrotation
			JOINT left_ankle
			{
				OFFSET	-11.7	-411.3	35.4
				CHANNELS 3  Xrotation Yrotation Zrotation
				JOINT left_toes
				{
					OFFSET	0	-60	-88.6
					CHANNELS 3  Xrotation Yrotation Zrotation
					JOINT left_foot_ee
					{
						OFFSET	-22.5	-16.5	-42.2
						CHANNELS 3  Xrotation Yrotation Zrotation
						End Site
						{
							OFFSET	1	0	0
						}
					}
				}
			}
		}
	}
	JOINT right_hip
	{
		OFFSET	82.8	-127.5	0.300001
		CHANNELS 3  Xrotation Yrotation Zrotation
		JOINT right_knee
		{
			OFFSET	28.2	-396.7	2.2
			CHANNELS 3  Xrotation Yrotation Zrotation
			JOINT right_ankle
			{
				OFFSET	11.7	-411.3	35.4
				CHANNELS 3  Xrotation Yrotation Zrotation
				JOINT right_toes
				{
					OFFSET	0	-60	-88.6
					CHANNELS 3  Xrotation Yrotation Zrotation
					JOINT right_foot_ee
					{
						OFFSET	22.5	-16.5	-42.2
						CHANNELS 3  Xrotation Yrotation Zrotation
						End Site
						{
							OFFSET	1	0	0
						}
					}
				}
			}
		}
	}
}
MOTION
Frames: 8
Frame Time: 0.02
1621.51 746.145 -699.741 -178.125 -81.0992 174.617 0.830641 0.333697 4.33118 0.841072 0.0576825 4.34361 0.847984 -0.794826 4.27079 0.822556 -0.111023 4.34257 -15.6295 4.97298 -12.4301 -15.4554 16.7827 -10.0688 -0.0 0.0 -0.0 -4.52364 14.5902 -5.62552 -7.84859 -22.8092 73.6663 0.171663 -4.86067 0.00728585 10.358 0.248197 -1.29807 2.58615 30.1767 26.4788 -0.0 0.0 -0.0 10.8209 7.5854 -21.6348 -10.4509 26.6887 -53.333 2.59617 52.1239 -1.26988 -7.9339 0.346154 -0.952578 -2.0057 -19.6549 4.02885 0.0 0.0 0.0 14.0352 -5.30833 3.67075 -15.8563 0.321966 2.40426 -18.211 27.0475 2.8819 27.6948 -0.0 -0.0 -0.0 0.0 -0.0 19.1855 19.9764 2.8036 -21.955 -0.26729 -3.33799 12.7939 17.8062 1.99418 -16.0668 0.0 0.0 0.0 0.0 0.0 
1628.77 754.92 -701.711 -178.741 -81.2165 174.178 0.431598 0.149126 4.46005 0.442651 -0.134693 4.4605 0.43559 -1.03833 4.34029 0.409472 -0.340541 4.44955 -14.7731 3.97972 -13.495 -14.4574 15.6934 -11.5468 -0.0 0.0 -0.0 -4.38185 14.3741 -5.44194 -8.11426 -21.7902 74.1627 0.187151 -5.29683 0.00865695 11.1599 0.257559 -1.40007 2.9479 30.2271 28.7205 -0.0 0.0 -0.0 10.3652 6.16632 -20.625 -11.233 25.7048 -52.4896 2.76349 53.8426 -1.40349 -8.26693 0.363548 -0.991458 -2.15853 -16.5243 6.50012 0.0 0.0 0.0 13.2098 -3.49919 3.51904 -11.3015 0.297882 1.70602 -13.9805 26.0662 2.19348 28.4248 -0.0 -0.0 -0.0 0.0 -0.0 20.2666 19.7714 2.95715 -21.8408 -0.269226 -3.32057 16.073 17.932 2.47032 -15.3536 0.0 0.0 0.0 0.0 0.0 
1636.22 758.875 -707.922 -176.274 -80.3966 176.97 0.248691 0.0984728 4.44467 0.259659 -0.184269 4.44194 0.249155 -1.09726 4.30848 0.223486 -0.403752 4.42742 -14.1773 3.25214 -14.1688 -13.7686 14.8471 -12.51 -0.0 0.0 -0.0 -4.29943 14.1946 -5.34679 -8.46108 -21.0257 74.2279 0.189946 -5.37547 0.00891684 11.7069 0.263125 -1.46971 3.18937 30.2669 30.2515 -0.0 0.0 -0.0 10.2108 5.2207 -20.2767 -11.4126 25.2399 -52.3513 2.93843 55.5001 -1.54623 -8.50154 0.375938 -1.01879 -2.2613 -14.3052 8.24944 0.0 0.0 0.0 13.1274 -2.13385 3.46806 -7.81821 0.242069 1.17451 -10.9509 25.3463 1.70614 28.9765 -0.0 -0.0 -0.0 0.0 -0.0 20.3766 19.4606 3.1368 -21.8887 -0.268418 -3.32787 18.3344 18.0266 2.78856 -14.8386 0.0 0.0 0.0 0.0 0.0 
1643.69 759.874 -710.801 -171.83 -79.1357 -178.126 0.532929 0.385579 4.22931 0.54287 0.115924 4.24523 0.554749 -0.739666 4.18202 0.530357 -0.0705315 4.24623 -13.7867 2.45342 -14.5258 -13.3133 13.6378 -13.1506 -0.0 0.0 -0.0 -4.18224 14.1301 -5.16761 -8.74607 -20.5641 74.3243 0.193897 -5.48663 0.00929092 12.0739 0.266487 -1.51647 3.29236 30.3354 30.9199 -0.0 0.0 -0.0 10.369 4.44534 -20.5983 -10.907 24.9087 -53.1539 3.18687 57.6356 -1.7536 -8.69911 0.386459 -1.04176 -2.42497 -12.638 10.1321 0.0 0.0 0.0 12.3186 -0.118144 3.31387 -5.93925 0.198575 0.889463 -8.8252 24.8275 1.36757 29.9782 -0.0 -0.0 -0.0 0.0 -0.0 20.0109 18.8399 3.46878 -21.922 -0.267854 -3.33295 19.0375 17.9725 2.88371 -14.422 0.0 0.0 0.0 0.0 0.0 
1652.73 753.193 -709.72 -170.378 -78.6869 -177.363 0.628816 0.583282 4.08677 0.638047 0.322273 4.11554 0.664392 -0.503013 4.09741 0.641001 0.149839 4.1254 -13.5694 1.96831 -13.0671 -13.1772 11.8535 -11.9077 -0.0 0.0 -0.0 -4.19499 14.0277 -5.21159 -9.0628 -20.2361 74.1159 0.184614 -5.22542 0.00842426 11.8639 0.2646 -1.48972 3.13691 29.7895 29.852 -0.0 0.0 -0.0 9.90602 4.42739 -19.6104 -11.2879 24.9454 -53.8486 3.45646 59.6992 -1.98391 -8.50012 0.375863 -1.01862 -2.51052 -11.0929 11.4732 0.0 0.0 0.0 11.1017 2.27616 3.13625 -4.88275 0.170018 0.729844 -7.65763 25.7137 1.19016 30.7632 -0.0 -0.0 -0.0 0.0 -0.0 20.8568 16.7015 3.99167 -21.9283 -0.267746 -3.33392 15.7602 17.4652 2.41664 -14.3757 0.0 0.0 0.0 0.0 0.0 
1663.44 751.415 -705.852 -168.933 -77.9541 -176.056 0.929053 0.729406 3.98237 0.937749 0.47473 4.02063 0.973613 -0.312489 4.03646 0.951033 0.328382 4.0352 -11.8964 1.17358 -10.9821 -11.5918 9.33341 -10.2792 -0.0 0.0 -0.0 -3.93633 13.9469 -4.80125 -9.83591 -19.6832 72.453 0.203383 -5.75327 0.0102197 11.7178 0.263229 -1.4711 2.87271 30.1292 28.2363 -0.0 0.0 -0.0 9.51408 5.14567 -18.7893 -11.6078 25.6324 -54.8553 3.67022 61.1725 -2.16986 -7.75903 0.337111 -0.932123 -2.57143 -8.424 13.2374 0.0 0.0 0.0 10.153 5.08698 3.12064 -4.04968 0.145425 0.604359 -8.47768 29.2319 1.34707 30.631 -0.0 -0.0 -0.0 0.0 -0.0 19.5558 14.5439 4.25149 -22.7066 -0.253681 -3.45252 13.3464 17.6462 2.07247 -14.0658 0.0 0.0 0.0 0.0 0.0 
1673.44 750.092 -706.101 -169.779 -77.6347 -176.988 0.807528 0.758337 3.94185 0.816028 0.506175 3.98203 0.854053 -0.282447 4.00408 0.831859 0.352949 3.9985 -10.7737 0.759418 -9.29196 -10.5447 7.61391 -8.83612 -0.0 0.0 -0.0 -3.64963 14.0249 -4.31112 -10.4047 -19.1658 71.3844 0.214716 -6.07152 0.0113872 11.6161 0.262247 -1.45815 2.69666 30.2881 27.1734 -0.0 0.0 -0.0 9.03639 5.50363 -17.7805 -12.7521 25.849 -55.5269 3.81773 62.1147 -2.29967 -7.2143 0.309344 -0.86823 -2.61172 -6.52509 14.4738 0.0 0.0 0.0 8.77537 7.45741 3.49068 -3.46807 0.127175 0.516965 -9.14165 31.3546 1.47539 30.4491 -0.0 -0.0 -0.0 0.0 -0.0 19.1939 13.0797 4.33264 -23.122 -0.245515 -3.51574 11.696 17.6091 1.8287 -13.8522 0.0 0.0 0.0 0.0 0.0 
1684.08 754.563 -708.664 -171.045 -77.2275 -177.919 0.773582 0.772204 3.89019 0.781848 0.523293 3.93135 0.820642 -0.258003 3.95758 0.798981 0.369762 3.94872 -10.0321 0.507503 -8.11361 -9.85235 6.4458 -7.80014 -0.0 0.0 -0.0 -3.432 14.0447 -3.9485 -10.4583 -18.8347 70.6472 0.228039 -6.4452 0.0128396 11.5624 0.261719 -1.4513 2.57424 30.36 26.4378 -0.0 0.0 -0.0 8.78749 5.81963 -17.2553 -13.5081 26.1233 -56.2707 3.92672 62.7751 -2.3963 -6.83091 0.290166 -0.823107 -2.63476 -5.19251 15.3053 0.0 0.0 0.0 7.80818 9.11706 3.83335 -3.05912 0.113811 0.455627 -9.60849 32.6915 1.56738 30.3202 -0.0 -0.0 -0.0 0.0 -0.0 18.7421 12.0494 4.4426 -23.4165 -0.239449 -3.56052 10.5416 17.581 1.65576 -13.7022 0.0 0.0 0.0 0.0 0.0 
